<svg width="2048" height="512" xmlns="http://www.w3.org/2000/svg">

 <g>
  <title>background</title>
  <rect fill="none" id="canvas_background" height="514" width="2050" y="-1" x="-1"/>
 </g>
 <g>
  <title>Layer 1</title>
  <g id="svg_1">
   <g id="svg_2">
    <path id="svg_3" fill="#9593e6" d="m480.742,404.949l-7.712,0l0,-51.736l-71.858,0l-290.344,0l-71.858,0l0,51.736l-7.712,0c-11.74,0 -21.258,9.517 -21.258,21.258l0,37.837l492,0l0,-37.837c0,-11.741 -9.517,-21.258 -21.258,-21.258zm-172.323,14.279c-1.632,9.145 -9.586,15.805 -18.876,15.805l-67.087,0c-9.29,0 -17.243,-6.66 -18.876,-15.805l-2.548,-14.279l109.935,0l-2.548,14.279z"/>
    <path id="svg_4" fill="#cbcaf3" d="m110.828,130.306l-48.07,0c-13.138,0 -23.788,10.65 -23.788,23.788l0,199.119l71.858,0l0,-222.907z"/>
    <path id="svg_5" fill="#cbcaf3" d="m473.03,353.213l0,-199.119c0,-13.138 -10.65,-23.788 -23.788,-23.788l-48.071,0l0,222.907l71.859,0z"/>
    <path id="svg_6" fill="#fff" d="m401.172,353.213l0,-222.907l0,-32.191l-290.344,0l0,32.191l0,222.907l290.344,0z"/>
    <path id="svg_7" fill="#a5dbff" d="m401.172,72.052c0,-13.308 -10.788,-24.096 -24.096,-24.096l-242.152,0c-13.308,0 -24.096,10.788 -24.096,24.096l0,26.063l290.343,0l0,-26.063l0.001,0z"/>
    <path id="svg_8" fill="#9bbecf" d="m203.581,419.228c1.632,9.145 9.586,15.805 18.876,15.805l67.087,0c9.29,0 17.243,-6.66 18.876,-15.805l2.548,-14.279l-109.936,0l2.549,14.279z"/>
   </g>
   <g id="svg_9">
    <path id="svg_10" d="m483.03,395.041c0,-13.494 0,-232.335 0,-240.948c0,-18.63 -15.157,-33.788 -33.788,-33.788l-38.071,0c0,-20.786 0,-27.381 0,-48.254c0,-18.8 -15.295,-34.096 -34.096,-34.096l-242.151,0c-18.8,0 -34.096,15.295 -34.096,34.096l0,48.254l-38.07,0c-18.63,0 -33.788,15.157 -33.788,33.788l0,240.948c-16.17,1.177 -28.97,14.7 -28.97,31.165l0,37.837c0,5.523 4.477,10 10,10l492,0c5.523,0 10,-4.477 10,-10l0,-37.837c0,-16.465 -12.8,-29.988 -28.97,-31.165zm-71.859,-254.735l38.071,0c7.603,0 13.788,6.185 13.788,13.788l0,189.119l-51.858,0l0,-202.907l-0.001,0zm-290.342,-68.254c0,-7.772 6.323,-14.096 14.096,-14.096l242.151,0c7.772,0 14.096,6.323 14.096,14.096l0,16.063l-270.343,0l0,-16.063zm0,36.063l270.343,0l0,235.098l-270.343,0c0,-11.98 0,-225.519 0,-235.098zm-71.859,45.979c0,-7.603 6.185,-13.788 13.788,-13.788l38.071,0l0,202.907l-51.859,0l0,-189.119zm0,209.119l414.06,0l0,31.736c-11.416,0 -401.404,0 -414.06,0l0,-31.736zm250.055,51.736l-0.451,2.522c-0.782,4.382 -4.58,7.562 -9.031,7.562l-67.087,0c-4.451,0 -8.249,-3.18 -9.031,-7.563l-0.45,-2.522l86.05,0l0,0.001zm192.975,39.094l-472,0l0,-27.837c0,-6.208 5.05,-11.257 11.257,-11.257l161.402,0l1.077,6.036c2.487,13.935 14.565,24.048 28.72,24.048l67.087,0c14.155,0 26.233,-10.114 28.72,-24.048l1.078,-6.037l161.402,0c6.208,0 11.257,5.05 11.257,11.257l0,27.838z"/>
    <path id="svg_11" d="m209.757,207.912c3.608,4.182 9.923,4.646 14.104,1.04c4.182,-3.608 4.647,-9.922 1.04,-14.104l-17.747,-20.57c-0.935,-1.083 -0.935,-2.718 0,-3.802l17.746,-20.57c3.607,-4.182 3.142,-10.496 -1.04,-14.104c-4.182,-3.607 -10.496,-3.142 -14.104,1.04l-17.746,20.569c-7.362,8.532 -7.362,21.4 0,29.932l17.747,20.569z"/>
    <path id="svg_12" d="m287.099,194.847c-3.607,4.182 -3.142,10.496 1.04,14.104s10.497,3.141 14.104,-1.04l17.746,-20.569c7.362,-8.532 7.362,-21.4 0,-29.932l-17.746,-20.57c-3.608,-4.182 -9.922,-4.647 -14.104,-1.04c-4.182,3.608 -4.647,9.922 -1.04,14.104l17.747,20.57c0.935,1.083 0.935,2.718 0,3.802l-17.747,20.571z"/>
    <path id="svg_13" d="m247.998,216.913c5.43,0.964 10.627,-2.655 11.593,-8.099l12.511,-70.518c0.965,-5.438 -2.662,-10.628 -8.099,-11.593c-5.441,-0.968 -10.629,2.662 -11.593,8.099l-12.511,70.518c-0.965,5.437 2.661,10.628 8.099,11.593z"/>
    <path id="svg_14" d="m174.05,254.207l163.9,0c5.523,0 10,-4.477 10,-10s-4.477,-10 -10,-10l-163.9,0c-5.523,0 -10,4.477 -10,10s4.477,10 10,10z"/>
    <path id="svg_15" d="m337.95,267.348c-5.523,0 -10,4.477 -10,10s4.477,10 10,10l0.025,0c5.523,0 9.987,-4.477 9.987,-10s-4.489,-10 -10.012,-10z"/>
    <path id="svg_16" d="m174.05,287.348l123.9,0c5.523,0 10,-4.477 10,-10s-4.477,-10 -10,-10l-123.9,0c-5.523,0 -10,4.477 -10,10s4.477,10 10,10z"/>
    <path id="svg_17" d="m337.95,300.488l-163.9,0c-5.523,0 -10,4.477 -10,10s4.477,10 10,10l163.9,0c5.523,0 10,-4.477 10,-10s-4.477,-10 -10,-10z"/>
   </g>
  </g>
  <text style="cursor: move;" stroke="#000" transform="matrix(12.33381515127769,0,0,16.975103517259868,-7032.906932674613,-4207.870207081693) " font-weight="bold" xml:space="preserve" text-anchor="start" font-family="Helvetica, Arial, sans-serif" font-size="10" id="svg_18" y="268.548136" x="611.245992" stroke-width="0" fill="#ffffff">Victor Ramide Web Dev</text>
 </g>
</svg>